<svg id="Layer_1" data-name="Layer 1" xmlns="http://www.w3.org/2000/svg" viewBox="0 0 512 512"><defs><style>.cls-1{fill:#fff;}</style></defs><title>CheckMark</title><path class="cls-1" d="M256.18,0C114.79,0,.18,114.62.18,256s114.61,256,256,256,256-114.62,256-256S397.56,0,256.18,0ZM433.54,177.26,233.25,411.48a37.52,37.52,0,0,1-26.31,13.07q-1.09.06-2.19.06a37.52,37.52,0,0,1-25.47-10L81.84,324.47a37.5,37.5,0,0,1,50.94-55.05L201.6,333.1,376.54,128.52a37.5,37.5,0,1,1,57,48.74Z" transform="translate(-0.18)"/></svg>