<?xml version="1.0" encoding="UTF-8" standalone="no"?>
<!-- Created with Inkscape (http://www.inkscape.org/) -->

<svg
   width="500"
   height="500"
   viewBox="0 0 500 500"
   version="1.1"
   id="svg1"
   sodipodi:docname="SearchIcon.svg"
   inkscape:version="1.3 (0e150ed6c4, 2023-07-21)"
   xmlns:inkscape="http://www.inkscape.org/namespaces/inkscape"
   xmlns:sodipodi="http://sodipodi.sourceforge.net/DTD/sodipodi-0.dtd"
   xmlns="http://www.w3.org/2000/svg"
   xmlns:svg="http://www.w3.org/2000/svg">
  <sodipodi:namedview
     id="namedview1"
     pagecolor="#505050"
     bordercolor="#ffffff"
     borderopacity="1"
     inkscape:showpageshadow="0"
     inkscape:pageopacity="0"
     inkscape:pagecheckerboard="1"
     inkscape:deskcolor="#505050"
     inkscape:document-units="mm"
     showgrid="true"
     inkscape:zoom="2.3900209"
     inkscape:cx="445.39359"
     inkscape:cy="456.27216"
     inkscape:window-width="1920"
     inkscape:window-height="1057"
     inkscape:window-x="1912"
     inkscape:window-y="-8"
     inkscape:window-maximized="1"
     inkscape:current-layer="layer1">
    <inkscape:grid
       id="grid1"
       units="px"
       originx="0"
       originy="0"
       spacingx="16"
       spacingy="16"
       empcolor="#0099e5"
       empopacity="0.30196078"
       color="#0099e5"
       opacity="0.14901961"
       empspacing="5"
       dotted="false"
       gridanglex="30"
       gridanglez="30"
       visible="true"
       enabled="true"
       snapvisiblegridlinesonly="true" />
  </sodipodi:namedview>
  <defs
     id="defs1" />
  <g
     inkscape:label="Layer 1"
     inkscape:groupmode="layer"
     id="layer1">
    <path
       id="path4"
       style="fill:#ffffff;stroke:none;stroke-width:1.22152;fill-opacity:1"
       d="M 192,0 C 85.961328,0 0,85.961328 0,192 c 0,106.03867 85.961328,192 192,192 37.07975,-0.0202 73.36041,-10.77696 104.45898,-30.9707 l 123.25586,123.25586 c 15.62117,15.62216 40.94915,15.62216 56.57032,0 15.62216,-15.62117 15.62216,-40.94915 0,-56.57032 L 353.0293,296.45898 C 373.22304,265.36041 383.97977,229.07975 384,192 384,85.961328 298.03867,0 192,0 Z m 0,64 c 70.69245,0 128,57.30755 128,128 0,70.69245 -57.30755,128 -128,128 C 121.30755,320 64,262.69245 64,192 64,121.30755 121.30755,64 192,64 Z"
       sodipodi:nodetypes="sscccccccssssss" />
  </g>
</svg>
